<svg width="141" height="141" viewBox="0 0 141 141" fill="none" xmlns="http://www.w3.org/2000/svg">
<circle cx="70.5" cy="70.5" r="70.5" fill="#EBF0FF"/>
<path d="M98.5938 32.9073C96.9494 33.1887 95.142 34.1664 93.9124 35.4848C92.3865 37.1142 91.7347 38.7585 91.7347 41.0249C91.7347 42.4322 91.9569 43.4395 92.5643 44.8023C92.6384 44.9652 90.7273 46.965 85.8977 51.8089L79.1127 58.5786L78.3719 58.0897C74.772 55.6752 69.9572 55.6752 66.3721 58.0749L65.6314 58.5786L60.3574 53.3051L55.0686 48.0168L55.3797 47.3353C55.6167 46.8021 55.6908 46.3429 55.6908 45.2467C55.7056 44.0172 55.6612 43.7357 55.3056 42.9951C54.2982 40.8323 52.3427 39.6621 49.9724 39.7954C45.6762 40.0324 43.3503 44.8912 45.8539 48.4019C47.3206 50.4461 50.0909 51.246 52.3575 50.2832L53.1427 49.9425L58.4019 55.216L63.6759 60.4747L63.1722 61.2598C61.9277 63.2003 61.4092 64.9779 61.4092 67.2887C61.4092 69.5848 62.0018 71.5994 63.2018 73.3325L63.6759 74.014L54.9205 82.7686L46.1798 91.5084L45.6021 91.064C42.4169 88.5457 37.7504 88.8716 34.8319 91.8194C31.5579 95.108 31.5579 100.13 34.8171 103.389C36.4911 105.062 38.3133 105.833 40.6244 105.833C42.9058 105.833 44.8465 105.033 46.4465 103.463C48.1057 101.804 48.8761 99.9223 48.8613 97.5373C48.8613 96.219 48.6094 95.1376 48.0317 93.834C47.9576 93.6711 50.4316 91.1084 56.7426 84.798L65.5573 75.9841L65.9573 76.2507C67.2906 77.0951 68.861 77.7765 70.1498 78.0431L70.9646 78.2209L71.0091 85.1979L71.0387 92.1749L70.0461 92.486C65.9721 93.7303 63.424 97.9077 64.2833 101.952C65.6462 108.41 73.4239 110.84 78.0904 106.277C80.1941 104.248 81.0534 101.27 80.3867 98.4261C79.7349 95.7005 77.4682 93.3304 74.6979 92.486L73.7053 92.1749L73.735 85.2127L73.7794 78.2505L74.8905 77.9691C75.9275 77.7024 77.8534 76.8581 78.7867 76.2507L79.1867 75.9841L84.4459 81.2428L89.7051 86.5015L89.3199 87.4495C88.9792 88.2791 88.9347 88.5753 88.994 89.6123C89.0977 91.7454 90.2384 93.4044 92.1939 94.3229C93.068 94.7228 93.3495 94.7821 94.4457 94.7821C95.542 94.7821 95.8235 94.7228 96.6679 94.3377C97.8827 93.76 98.816 92.8415 99.3938 91.612C99.8086 90.7529 99.8531 90.5011 99.8531 89.316C99.8531 88.1161 99.8086 87.8791 99.379 87.02C98.5642 85.3461 97.0383 84.2054 95.305 83.9388C94.2976 83.7759 92.9791 83.9536 92.1939 84.3388L91.6606 84.6054L86.3718 79.3171L81.0682 74.014L81.5422 73.3325C82.683 71.6735 83.3348 69.4811 83.3348 67.2443C83.3348 65.0075 82.7719 63.141 81.5274 61.2005L81.0682 60.4747L87.7051 53.8384L94.3568 47.1872L95.0235 47.6761C96.6087 48.8315 98.1049 49.3055 100.075 49.2907C102.312 49.2759 103.957 48.6093 105.586 47.0539C108.283 44.4912 108.949 40.8175 107.32 37.4401C105.779 34.2405 102.09 32.3148 98.5938 32.9073Z" fill="#0D47A1"/>
</svg>
